<svg width="48" height="49" viewBox="0 0 48 49" fill="none" xmlns="http://www.w3.org/2000/svg">
<path d="M43.7184 17.4681C43.5324 16.0697 43.5061 13.6613 44.805 12.8526C44.8282 12.8377 44.8455 12.8163 44.8658 12.7979C45.9276 12.4583 46.6625 11.9816 46.0857 11.3403L30.4217 6.62055L5.05809 10.1469C5.05809 10.1469 2.15365 10.562 2.41311 15.0745C2.55396 17.5304 3.32424 18.7366 3.99788 19.3302L1.91656 19.9574C1.33889 20.5988 2.07361 21.0756 3.13562 21.4146C3.1558 21.4336 3.17282 21.4549 3.19643 21.4697C4.49442 22.2791 4.46944 24.6873 4.28273 26.0859C-0.380278 27.41 1.29359 27.8415 1.29359 27.8415L2.31646 28.089C1.59698 28.7391 0.88243 29.9721 1.01628 32.3104C1.27588 36.822 3.66154 37.1333 3.66154 37.1333L20.2593 42.5282L45.3117 36.4601C45.3117 36.4601 46.9861 36.0279 42.3218 34.7037C42.1343 33.3073 42.1082 30.8994 43.4092 30.0879C43.4331 30.0735 43.4505 30.0517 43.4699 30.0336C44.5319 29.6939 45.2661 29.2177 44.6891 28.5763L43.6002 28.2475C44.3264 27.8096 45.4172 26.6651 45.5881 23.6921C45.7061 21.6472 45.1726 20.4496 44.5551 19.7445L46.7074 19.2236C46.7075 19.2245 48.3819 18.7923 43.7184 17.4681ZM22.7636 17.4103L26.9765 16.5445L41.2136 13.6187L43.3347 13.1824C42.6569 14.4229 42.6853 16.1205 42.7975 17.2116C42.8221 17.4585 42.8504 17.6839 42.8778 17.8552L40.5561 18.4325L22.5865 22.9028L22.7636 17.4103ZM4.66684 21.801L6.78769 22.2372L20.4604 25.0479L21.6549 25.2926L25.237 26.0288L25.4137 31.5214L6.94474 26.9265L5.12399 26.474C5.15076 26.3024 5.17904 26.0773 5.20471 25.8297C5.31618 24.7395 5.34515 23.0414 4.66684 21.801ZM3.84289 14.8573C3.81722 13.657 4.0311 12.789 4.4634 12.3478C4.73851 12.0661 5.06317 12.0075 5.28584 12.0075C5.40349 12.0075 5.4882 12.0238 5.49396 12.0238L16.4225 15.5866L21.8748 17.3643L21.696 22.8952L6.39988 18.6068L5.59267 18.3807C5.56301 18.3724 5.52279 18.3666 5.49176 18.3652C5.42875 18.3607 3.91647 18.2215 3.84289 14.8573ZM20.2989 40.132L4.19597 35.6173C4.16618 35.6087 4.12637 35.6029 4.09535 35.6014C4.03124 35.5971 2.51827 35.4581 2.4451 32.0947C2.41901 30.8929 2.63399 30.0257 3.06547 29.5841C3.34126 29.3024 3.66607 29.2438 3.88833 29.2438C4.00625 29.2438 4.09068 29.2596 4.09686 29.2596C4.09686 29.2596 4.09754 29.2596 4.09686 29.2596L20.4766 34.6009L20.2989 40.132ZM41.3996 34.4476C41.425 34.6952 41.4533 34.9202 41.4807 35.0918L21.189 40.1398L21.3663 34.6472L25.7046 33.7552L26.3452 33.9102L28.7466 33.1298L39.8156 30.8552L41.9376 30.4186C41.2591 31.659 41.2873 33.3573 41.3996 34.4476ZM42.5173 26.9829C42.4804 26.9837 42.4435 26.9887 42.4087 26.9996L40.8783 27.4281L26.3063 31.5141L26.1281 25.9832L30.909 24.4238L42.4855 20.6485C42.487 20.6478 43.0944 20.5128 43.5403 20.9663C43.9719 21.4075 44.1861 22.2755 44.1608 23.4758C44.0853 26.8389 42.5724 26.9786 42.5173 26.9829Z" fill="#2A3D98"/>
</svg>
