<svg width="24" height="24" viewBox="0 0 24 24" fill="none" xmlns="http://www.w3.org/2000/svg">
<path d="M12.0015 12.9995L12.0017 12.9993L12.002 12.9995L12.0017 12.9998L12.0015 12.9995Z" fill="#2A3D98" stroke="#2A3D98" stroke-width="2"/>
<path d="M10.002 6.21271C10.3019 5.50177 11.0572 5.00189 11.9348 5.00189C13.079 5.00189 14.001 5.85724 14.001 6.90142C14.001 8.11224 11.9348 8.35663 11.9348 10.0007" stroke="#2A3D98" stroke-width="2" stroke-miterlimit="10" stroke-linecap="round" stroke-linejoin="round"/>
<path d="M5.00293 16.9988C2.79236 16.9988 1.00391 15.2103 1.00391 12.9998V5.00171C1.00391 2.79114 2.79236 1.00269 5.00293 1.00269H18.9995C21.2101 1.00269 22.9985 2.79114 22.9985 5.00171V12.9998C22.9985 15.2103 21.2101 16.9988 18.9995 16.9988H11.0015L5.00293 22.9973V16.9988Z" stroke="#2A3D98" stroke-width="2" stroke-miterlimit="10" stroke-linecap="round" stroke-linejoin="round"/>
</svg>
