<svg width="72" height="64" viewBox="0 0 72 64" fill="none" xmlns="http://www.w3.org/2000/svg">
<rect width="72" height="64" fill="white"/>
<path d="M15.3572 45.663H14.5432V53H15.3572V49.843L15.5662 49.634L18.5692 53H19.6912L16.1492 49.084L19.5812 45.663H18.4812L15.3572 48.809V45.663ZM23.6468 53.132C25.7698 53.132 27.4638 51.515 27.4638 49.337C27.4638 47.148 25.7588 45.542 23.6468 45.542C21.5348 45.542 19.8298 47.148 19.8298 49.337C19.8298 51.515 21.5238 53.132 23.6468 53.132ZM23.6468 46.312C25.2968 46.312 26.6278 47.654 26.6278 49.337C26.6278 51.02 25.2968 52.362 23.6468 52.362C21.9968 52.362 20.6658 51.02 20.6658 49.337C20.6658 47.654 21.9968 46.312 23.6468 46.312ZM29.7732 53V47.335L35.4932 53.33V45.663H34.6792V51.35L28.9592 45.355V53H29.7732ZM40.9671 46.433V45.663H36.5891V46.433H38.3711V53H39.1851V46.433H40.9671ZM46.4765 53H47.3785L44.0895 45.311L40.7125 53H41.6145L42.4945 50.932H45.6185L46.4765 53ZM42.8135 50.162L44.0675 47.225L45.2995 50.162H42.8135ZM49.2273 45.663H48.4133V53H49.2273V49.843L49.4363 49.634L52.4393 53H53.5613L50.0193 49.084L53.4513 45.663H52.3513L49.2273 48.809V45.663ZM58.2512 46.433V45.663H53.8732V46.433H55.6552V53H56.4692V46.433H58.2512Z" fill="#2A3D98"/>
<path d="M36.0015 24.9995L36.0017 24.9993L36.002 24.9995L36.0017 24.9998L36.0015 24.9995Z" fill="#2A3D98" stroke="#2A3D98" stroke-width="2"/>
<path d="M34.002 18.2127C34.3019 17.5018 35.0572 17.0019 35.9348 17.0019C37.079 17.0019 38.001 17.8572 38.001 18.9014C38.001 20.1122 35.9348 20.3566 35.9348 22.0007" stroke="#2A3D98" stroke-width="2" stroke-miterlimit="10" stroke-linecap="round" stroke-linejoin="round"/>
<path d="M29.0029 28.9988C26.7924 28.9988 25.0039 27.2103 25.0039 24.9998V17.0017C25.0039 14.7911 26.7924 13.0027 29.0029 13.0027H42.9995C45.2101 13.0027 46.9985 14.7911 46.9985 17.0017V24.9998C46.9985 27.2103 45.2101 28.9988 42.9995 28.9988H35.0015L29.0029 34.9973V28.9988Z" stroke="#2A3D98" stroke-width="2" stroke-miterlimit="10" stroke-linecap="round" stroke-linejoin="round"/>
</svg>
