<svg width="48" height="48" viewBox="0 0 48 48" fill="none" xmlns="http://www.w3.org/2000/svg">
<path d="M25.5 42C26.3284 42 27 41.3284 27 40.5C27 39.6716 26.3284 39 25.5 39C24.6716 39 24 39.6716 24 40.5C24 41.3284 24.6716 42 25.5 42Z" fill="#2A3D98"/>
<path d="M15.75 36.6532V44.3468C15.7502 44.52 15.819 44.6861 15.9415 44.8085C16.0639 44.931 16.23 44.9998 16.4032 45H34.5968C34.77 44.9998 34.9361 44.931 35.0585 44.8085C35.181 44.6861 35.2498 44.52 35.25 44.3468V36.6532C35.2498 36.48 35.181 36.3139 35.0585 36.1915C34.9361 36.069 34.77 36.0002 34.5968 36H16.4032C16.23 36.0002 16.0639 36.069 15.9415 36.1915C15.819 36.3139 15.7502 36.48 15.75 36.6532ZM25.5 37.5C26.0933 37.5 26.6734 37.6759 27.1667 38.0056C27.6601 38.3352 28.0446 38.8038 28.2716 39.3519C28.4987 39.9001 28.5581 40.5033 28.4424 41.0853C28.3266 41.6672 28.0409 42.2018 27.6213 42.6213C27.2018 43.0409 26.6672 43.3266 26.0853 43.4424C25.5033 43.5581 24.9001 43.4987 24.3519 43.2716C23.8038 43.0446 23.3352 42.6601 23.0056 42.1667C22.6759 41.6734 22.5 41.0933 22.5 40.5C22.5009 39.7046 22.8173 38.9421 23.3797 38.3797C23.9421 37.8173 24.7046 37.5009 25.5 37.5Z" fill="#2A3D98"/>
<path d="M41.25 44.25V42H36.75V44.3468C36.75 44.5685 36.7158 44.7888 36.6484 45H40.5C40.6988 44.9998 40.8895 44.9207 41.0301 44.7801C41.1707 44.6395 41.2498 44.4488 41.25 44.25Z" fill="#2A3D98"/>
<path d="M18 33H33V34.5H18V33Z" fill="#2A3D98"/>
<path d="M37.5 25.5C38.7426 25.5 39.75 25.1642 39.75 24.75C39.75 24.3358 38.7426 24 37.5 24C36.2574 24 35.25 24.3358 35.25 24.75C35.25 25.1642 36.2574 25.5 37.5 25.5Z" fill="#2A3D98"/>
<path d="M5.25 23.2013L8.06981 44.3491C8.09432 44.529 8.18308 44.6941 8.31971 44.8137C8.45635 44.9333 8.63164 44.9995 8.81325 45H14.3515C14.2842 44.7888 14.2499 44.5685 14.25 44.3468V36.6532C14.2506 36.0823 14.4777 35.535 14.8814 35.1314C15.285 34.7277 15.8323 34.5006 16.4032 34.5H16.5V32.25C16.5 32.0511 16.579 31.8603 16.7197 31.7197C16.8603 31.579 17.0511 31.5 17.25 31.5C19.1793 31.5 20.2219 30.6179 21.4287 29.5969C21.7731 29.3055 22.1287 29.005 22.5146 28.7162L23.25 23.2013C23.2347 21.0224 22.359 18.9379 20.8138 17.4018C19.2685 15.8657 17.1789 15.0024 15 15H13.5C11.3211 15.0024 9.23149 15.8657 7.68624 17.4018C6.14099 18.9379 5.26533 21.0224 5.25 23.2013ZM9 21C9 20.8011 9.07902 20.6103 9.21967 20.4697C9.36032 20.329 9.55109 20.25 9.75 20.25H18.75C18.9489 20.25 19.1397 20.329 19.2803 20.4697C19.421 20.6103 19.5 20.8011 19.5 21V25.5C19.5 25.6989 19.421 25.8897 19.2803 26.0303C19.1397 26.171 18.9489 26.25 18.75 26.25H9.75C9.55109 26.25 9.36032 26.171 9.21967 26.0303C9.07902 25.8897 9 25.6989 9 25.5V21Z" fill="#2A3D98"/>
<path d="M10.6355 13.5H13.5001H15.0001H17.8647L17.3648 10.5H11.1355L10.6355 13.5Z" fill="#2A3D98"/>
<path d="M21.7499 3.05186L11.8022 3.71505L11.5405 4.50021H21.7499V3.05186Z" fill="#2A3D98"/>
<path d="M27.2735 29.3272C27.1116 29.0887 27.0029 28.8181 26.9548 28.5339C24.7798 28.7262 23.6191 29.7082 22.3979 30.7416C22.0958 30.9973 21.791 31.2548 21.4709 31.5H32.7479C32.7386 31.4831 32.7301 31.4661 32.7206 31.4491C32.4499 30.9721 32.0624 30.75 31.4999 30.75C29.3296 30.75 27.9077 30.2714 27.2735 29.3272Z" fill="#2A3D98"/>
<path d="M30.75 16.5H44.25V18H30.75V16.5Z" fill="#2A3D98"/>
<path d="M30.8569 19.5L32.166 29.3197C32.5691 29.4053 32.9481 29.5797 33.2754 29.8302C33.6027 30.0807 33.87 30.4009 34.0579 30.7677C34.291 31.2042 34.4396 31.6807 34.496 32.1723V32.1748C34.496 32.1795 34.4971 32.1848 34.4973 32.1877C34.4989 32.2084 34.5003 32.229 34.5003 32.25V34.5H34.5972C35.168 34.5006 35.7153 34.7277 36.119 35.1314C36.5226 35.535 36.7497 36.0823 36.7503 36.6532V40.5H41.3441L44.1441 19.5H30.8569ZM37.5003 27C35.3628 27 33.7503 26.0328 33.7503 24.75C33.7503 23.4672 35.3628 22.5 37.5003 22.5C39.6379 22.5 41.2504 23.4672 41.2504 24.75C41.2504 26.0328 39.6379 27 37.5003 27Z" fill="#2A3D98"/>
<path d="M10.5 21.75H18V24.75H10.5V21.75Z" fill="#2A3D98"/>
<path d="M12.75 6H15.75V9H12.75V6Z" fill="#2A3D98"/>
</svg>
